<?xml version="1.0" standalone="no"?>
<!DOCTYPE svg PUBLIC "-//W3C//DTD SVG 20010904//EN"
 "http://www.w3.org/TR/2001/REC-SVG-20010904/DTD/svg10.dtd">
<svg version="1.0" xmlns="http://www.w3.org/2000/svg"
 width="2100.000000pt" height="1500.000000pt" viewBox="0 0 2100.000000 1500.000000"
 preserveAspectRatio="xMidYMid meet">

<g transform="translate(0.000000,1500.000000) scale(0.100000,-0.100000)"
fill="#000000" stroke="none">
<path d="M12313 14449 c-43 -39 -125 -115 -183 -168 -58 -54 -132 -121 -165
-151 -33 -29 -89 -81 -125 -115 -36 -34 -103 -95 -150 -136 -47 -41 -94 -83
-106 -94 -11 -11 -60 -57 -109 -102 -50 -45 -112 -102 -139 -126 -27 -25 -65
-52 -85 -61 -20 -8 -108 -45 -196 -81 -88 -36 -196 -81 -240 -100 -44 -18
-125 -52 -180 -75 -55 -22 -109 -45 -120 -50 -98 -44 -341 -140 -357 -140 -7
0 -22 6 -33 14 -31 21 -486 286 -685 398 -19 11 -39 24 -45 28 -5 4 -28 18
-50 30 -22 13 -58 33 -81 46 -22 12 -78 45 -124 73 -46 28 -93 51 -105 51 -12
0 -103 -14 -201 -30 -98 -17 -194 -33 -212 -36 -17 -2 -125 -20 -240 -40 -114
-19 -225 -37 -247 -40 -22 -3 -46 -7 -54 -10 -8 -2 -45 -9 -83 -14 -59 -9 -81
-7 -151 11 -45 12 -100 25 -122 30 -22 4 -230 56 -463 114 -233 58 -427 105
-432 105 -6 0 -11 -356 -12 -919 l-3 -919 120 -70 c66 -39 242 -141 390 -227
149 -86 343 -200 432 -252 90 -52 167 -93 173 -91 6 2 29 26 53 55 40 49 396
463 407 473 3 3 28 32 55 65 28 33 52 62 55 65 23 23 179 201 275 315 65 77
142 167 171 200 28 33 62 72 75 88 l24 28 205 -69 c113 -38 364 -122 559 -186
l355 -117 557 92 557 93 189 156 c103 86 352 292 551 458 200 166 371 302 380
302 15 0 106 -56 225 -139 36 -24 217 -145 265 -176 281 -181 662 -443 742
-510 58 -48 123 -102 145 -120 22 -18 164 -136 315 -262 152 -125 322 -266
379 -313 57 -47 115 -95 130 -107 l26 -23 3 822 c1 452 -1 825 -5 829 -8 7
-92 34 -348 109 -217 64 -533 159 -655 197 -123 38 -111 31 -419 272 -18 14
-61 47 -95 73 -33 26 -68 53 -76 61 -9 7 -33 26 -55 42 -40 31 -63 48 -95 75
-9 8 -32 26 -50 40 -18 14 -79 61 -134 105 -153 120 -291 225 -299 225 -3 0
-41 -32 -84 -71z"/>
<path d="M6202 13048 c-7 -7 -12 -19 -12 -27 1 -13 3 -13 15 2 18 25 59 19 63
-9 2 -13 -5 -24 -20 -32 l-23 -11 22 -6 c42 -13 39 -65 -4 -65 -14 0 -32 8
-39 17 -7 10 -16 15 -20 11 -15 -15 29 -49 59 -46 41 4 60 35 43 68 -8 17 -9
30 -2 42 17 28 -8 68 -42 68 -15 0 -33 -5 -40 -12z"/>
<path d="M6344 13052 c-19 -12 -34 -49 -34 -82 0 -33 15 -70 34 -82 21 -15 63
-8 82 13 13 15 19 36 19 69 0 33 -6 54 -19 69 -19 21 -61 28 -82 13z m76 -43
c9 -21 10 -42 4 -67 -7 -30 -14 -38 -37 -40 -41 -5 -57 13 -57 67 0 54 13 71
51 71 20 0 30 -7 39 -31z"/>
<path d="M6484 13039 c-13 -15 -19 -36 -19 -69 0 -81 66 -120 115 -68 32 35
24 125 -14 150 -21 15 -63 8 -82 -13z m87 -21 c15 -27 14 -85 -2 -104 -6 -8
-24 -14 -39 -14 -42 0 -62 57 -40 114 13 35 64 37 81 4z"/>
<path d="M6196 12468 c-19 -26 -10 -41 9 -15 20 27 59 19 63 -13 2 -19 -9 -36
-43 -70 -25 -24 -45 -48 -45 -52 0 -4 27 -8 60 -8 33 0 60 4 60 10 0 6 -19 10
-41 10 l-41 0 36 40 c54 61 47 120 -15 120 -17 0 -34 -8 -43 -22z"/>
<path d="M6345 12454 c-7 -42 -1 -51 40 -56 26 -3 30 -7 30 -33 0 -25 -4 -31
-27 -33 -18 -2 -31 4 -41 18 -8 12 -17 17 -21 12 -11 -19 25 -52 58 -52 40 0
56 15 56 56 0 35 -12 48 -52 58 -20 4 -25 11 -21 26 4 15 14 20 39 20 19 0 34
5 34 10 0 6 -20 10 -44 10 -42 0 -44 -1 -51 -36z"/>
<path d="M6485 12470 c-26 -29 -26 -111 -1 -139 19 -21 61 -28 82 -13 19 12
34 49 34 82 0 33 -15 70 -34 82 -21 14 -63 8 -81 -12z m83 -12 c16 -16 15 -90
-1 -112 -9 -12 -23 -17 -42 -14 -25 2 -31 9 -39 40 -13 52 7 98 43 98 15 0 32
-5 39 -12z"/>
<path d="M12360 11893 c-18 -21 -72 -79 -119 -129 -47 -50 -106 -113 -129
-140 -73 -82 -204 -225 -271 -296 -34 -37 -60 -71 -57 -76 3 -5 -2 -9 -12 -8
-10 0 -16 -6 -16 -16 1 -10 -2 -16 -6 -13 -10 6 -52 -40 -43 -48 3 -4 1 -7 -5
-7 -6 0 -33 -23 -60 -50 l-49 -50 4 -70 c4 -59 2 -70 -11 -70 -14 0 -16 -68
-16 -720 0 -633 2 -720 15 -720 20 0 19 -16 -2 -26 -10 -5 -268 -11 -573 -14
-305 -3 382 -6 1527 -5 1145 0 2084 2 2087 5 6 7 13 739 6 743 -3 1 -27 29
-55 62 -27 33 -75 89 -106 125 -134 154 -217 249 -259 299 -25 30 -50 59 -55
65 -6 6 -93 108 -195 226 -101 118 -186 217 -189 220 -3 3 -47 52 -96 110 -50
58 -95 110 -101 116 -6 7 -21 25 -35 41 -17 21 -70 47 -189 96 -91 38 -203 84
-250 104 -126 52 -178 74 -360 148 -91 37 -169 71 -174 76 -6 5 -16 9 -24 9
-7 0 -32 9 -55 19 -81 37 -90 36 -127 -6z"/>
<path d="M6186 11888 c-19 -26 -10 -41 9 -15 20 27 59 19 63 -13 2 -19 -9 -36
-43 -70 -25 -24 -45 -48 -45 -52 0 -4 27 -8 60 -8 33 0 60 4 60 10 0 6 -19 10
-41 10 l-41 0 36 40 c54 61 47 120 -15 120 -17 0 -34 -8 -43 -22z"/>
<path d="M6344 11902 c-19 -12 -34 -49 -34 -82 0 -33 15 -70 34 -82 21 -14 63
-8 81 12 26 29 26 111 1 139 -19 21 -61 28 -82 13z m76 -43 c9 -21 10 -42 4
-67 -8 -32 -14 -37 -40 -40 -37 -4 -54 14 -56 60 -2 49 17 78 51 78 22 0 31
-7 41 -31z"/>
<path d="M6484 11889 c-13 -15 -19 -36 -19 -69 0 -56 24 -90 65 -90 38 0 60
20 66 62 12 70 -15 118 -65 118 -16 0 -36 -9 -47 -21z m86 -18 c14 -27 13 -94
-2 -109 -7 -7 -24 -12 -39 -12 -20 0 -30 7 -39 30 -14 33 -6 96 13 103 27 12
57 6 67 -12z"/>
<path d="M6264 11314 c3 -9 6 -49 6 -90 0 -43 4 -74 10 -74 6 0 10 37 10 90 0
76 -3 90 -16 90 -11 0 -14 -5 -10 -16z"/>
<path d="M6346 11299 c-10 -53 -8 -58 32 -61 34 -3 37 -6 37 -33 0 -25 -4 -31
-27 -33 -18 -2 -31 4 -41 18 -8 12 -17 17 -21 12 -10 -16 24 -52 50 -52 43 0
64 17 64 53 0 39 -15 57 -46 57 -27 0 -36 12 -28 34 4 10 18 16 40 16 19 0 34
5 34 10 0 6 -20 10 -44 10 -41 0 -44 -2 -50 -31z"/>
<path d="M6486 11311 c-47 -52 -17 -161 43 -161 52 0 79 47 67 118 -3 20 -13
43 -23 49 -25 19 -67 16 -87 -6z m82 -13 c17 -17 15 -103 -2 -117 -8 -7 -27
-11 -43 -9 -60 7 -54 138 6 138 15 0 32 -5 39 -12z"/>
<path d="M11560 11025 c-7 -9 -11 -18 -8 -20 3 -3 11 1 18 10 7 9 11 18 8 20
-3 3 -11 -1 -18 -10z"/>
<path d="M11505 10961 c-3 -5 -1 -12 5 -16 5 -3 10 1 10 9 0 18 -6 21 -15 7z"/>
<path d="M11485 10930 c-3 -5 -1 -10 4 -10 6 0 11 5 11 10 0 6 -2 10 -4 10 -3
0 -8 -4 -11 -10z"/>
<path d="M6250 10750 c0 -5 3 -10 8 -10 4 0 6 -36 4 -80 -2 -52 0 -80 7 -80 7
0 11 32 11 90 0 73 -3 90 -15 90 -8 0 -15 -4 -15 -10z"/>
<path d="M6344 10752 c-19 -12 -34 -49 -34 -82 0 -33 15 -70 34 -82 21 -15 63
-8 82 13 13 15 19 36 19 69 0 33 -6 54 -19 69 -19 21 -61 28 -82 13z m76 -43
c17 -41 3 -99 -26 -110 -36 -13 -64 15 -64 62 0 56 15 79 49 79 22 0 31 -7 41
-31z"/>
<path d="M6484 10739 c-13 -15 -19 -36 -19 -69 0 -57 24 -90 66 -90 69 0 96
132 35 172 -21 15 -63 8 -82 -13z m86 -18 c15 -29 12 -97 -4 -110 -8 -7 -27
-11 -43 -9 -23 2 -30 10 -37 40 -13 53 7 98 45 98 18 0 32 -7 39 -19z"/>
<path d="M6345 10144 c-7 -42 -6 -44 37 -53 28 -6 33 -11 33 -36 0 -25 -4 -31
-27 -33 -18 -2 -31 4 -41 18 -8 12 -17 17 -21 12 -11 -18 25 -52 55 -52 38 0
59 20 59 57 0 32 -16 53 -39 53 -26 0 -42 16 -35 33 4 11 18 17 40 17 19 0 34
5 34 10 0 6 -20 10 -44 10 -42 0 -44 -1 -51 -36z"/>
<path d="M6479 10148 c-38 -61 -7 -148 52 -148 57 0 90 82 58 143 -27 50 -80
52 -110 5z m92 -10 c15 -27 14 -85 -2 -104 -6 -8 -24 -14 -39 -14 -42 0 -62
57 -40 114 13 35 64 37 81 4z"/>
<path d="M6479 9568 c-37 -60 -8 -148 50 -148 47 0 71 34 71 97 0 81 -81 114
-121 51z m90 -2 c16 -19 17 -77 2 -104 -17 -32 -64 -30 -79 3 -25 55 -5 115
38 115 15 0 33 -6 39 -14z"/>
<path d="M9758 9433 c45 -2 119 -2 165 0 45 1 8 3 -83 3 -91 0 -128 -2 -82 -3z"/>
<path d="M10258 9433 c12 -2 32 -2 45 0 12 2 2 4 -23 4 -25 0 -35 -2 -22 -4z"/>
<path d="M10368 9433 c6 -2 18 -2 25 0 6 3 1 5 -13 5 -14 0 -19 -2 -12 -5z"/>
<path d="M13635 9271 c-39 -16 -60 -51 -60 -98 0 -37 5 -49 28 -69 42 -36 98
-33 131 7 36 43 34 59 -9 59 -19 0 -35 -5 -35 -11 0 -6 9 -9 20 -6 29 7 34 -9
10 -33 -30 -30 -83 -27 -109 6 -27 35 -26 66 2 100 25 29 79 36 100 15 14 -14
27 -14 27 -1 0 11 -53 40 -72 39 -7 0 -22 -4 -33 -8z"/>
<path d="M7278 9188 c-3 -82 -3 -83 -30 -86 -37 -4 -36 -22 2 -22 40 0 50 23
50 114 0 103 -18 97 -22 -6z"/>
<path d="M7392 9243 c-40 -101 -60 -163 -52 -163 5 0 14 9 20 20 16 30 92 28
113 -2 28 -43 24 -13 -11 80 -19 50 -40 92 -47 92 -7 0 -17 -12 -23 -27z m57
-90 c1 -8 -12 -13 -34 -13 -40 0 -40 0 -18 59 l17 44 17 -39 c10 -21 18 -45
18 -51z"/>
<path d="M7530 9175 c0 -111 18 -130 22 -23 l3 71 48 -71 c26 -40 52 -72 57
-72 6 0 10 39 10 95 0 111 -18 130 -22 23 l-3 -71 -48 71 c-26 40 -52 72 -57
72 -6 0 -10 -39 -10 -95z"/>
<path d="M8110 9175 c0 -57 4 -95 10 -95 6 0 10 20 10 45 l0 45 40 0 c22 0 40
5 40 10 0 6 -18 10 -40 10 -38 0 -40 2 -40 30 0 29 2 30 45 30 25 0 45 5 45
10 0 6 -25 10 -55 10 l-55 0 0 -95z"/>
<path d="M8240 9175 l0 -95 60 0 c33 0 60 4 60 10 0 6 -22 10 -50 10 l-50 0 0
35 c0 34 1 35 40 35 22 0 40 5 40 10 0 6 -18 10 -40 10 -38 0 -40 2 -40 30 0
29 2 30 44 30 25 0 48 5 51 10 4 6 -17 10 -54 10 l-61 0 0 -95z"/>
<path d="M8390 9175 l0 -95 49 0 c65 0 92 34 65 85 -9 18 -11 32 -4 44 17 32
-14 61 -66 61 l-44 0 0 -95z m90 50 c0 -23 -17 -35 -51 -35 -26 0 -27 57 -1
62 31 7 52 -4 52 -27z m4 -61 c19 -18 19 -20 6 -45 -8 -13 -21 -19 -45 -19
-34 0 -35 1 -35 40 0 38 2 40 29 40 16 0 37 -7 45 -16z"/>
<path d="M8925 9248 c-17 -72 -33 -163 -30 -166 11 -11 24 14 30 61 11 80 18
82 44 12 12 -36 26 -65 30 -65 4 0 18 30 31 68 l24 67 12 -50 c7 -27 13 -60
13 -72 1 -13 7 -23 15 -23 11 0 12 8 6 38 -5 20 -13 63 -20 95 -6 31 -15 57
-20 57 -5 0 -19 -27 -31 -60 -12 -33 -25 -62 -29 -65 -3 -2 -17 25 -30 61 -26
68 -36 78 -45 42z"/>
<path d="M9192 9243 c-48 -122 -60 -163 -48 -163 8 0 16 9 19 20 8 31 89 29
110 -2 28 -43 24 -13 -11 80 -19 50 -40 92 -47 92 -7 0 -17 -12 -23 -27z m57
-90 c1 -8 -12 -13 -34 -13 -40 0 -41 4 -18 62 l17 42 17 -40 c10 -21 18 -45
18 -51z"/>
<path d="M9330 9175 c0 -57 4 -95 10 -95 6 0 10 18 10 40 0 53 27 54 55 3 11
-20 26 -39 34 -41 11 -4 8 6 -7 32 l-22 38 20 25 c40 52 16 93 -56 93 l-44 0
0 -95z m91 59 c19 -23 -1 -48 -40 -52 -30 -3 -31 -2 -31 32 0 33 2 36 29 36
16 0 34 -7 42 -16z"/>
<path d="M9836 9188 c-16 -46 -31 -89 -34 -95 -2 -7 1 -13 6 -13 6 0 14 9 17
20 5 16 15 20 55 20 40 0 50 -4 55 -20 3 -11 11 -20 17 -20 5 0 8 6 6 13 -3 6
-18 49 -34 94 -19 55 -34 83 -44 83 -10 0 -25 -28 -44 -82z m67 -3 l16 -45
-41 0 c-34 0 -39 3 -33 18 4 9 12 29 17 45 14 38 24 34 41 -18z"/>
<path d="M9990 9175 c0 -57 4 -95 10 -95 6 0 10 18 10 40 0 39 1 40 33 40 38
0 67 25 67 58 0 33 -27 52 -76 52 l-44 0 0 -95z m97 59 c10 -26 -11 -49 -46
-52 -30 -3 -31 -2 -31 32 0 34 2 36 35 36 24 0 38 -5 42 -16z"/>
<path d="M10140 9175 c0 -57 4 -95 10 -95 6 0 10 18 10 40 0 53 27 54 55 3 28
-51 53 -57 27 -6 -20 38 -20 39 -1 62 39 48 11 91 -59 91 l-42 0 0 -95z m95
53 c9 -26 -12 -48 -46 -48 -26 0 -29 3 -29 34 0 25 5 36 18 38 28 6 51 -3 57
-24z"/>
<path d="M10626 9183 c-19 -102 -19 -103 -7 -103 5 0 15 33 23 73 l14 72 24
-63 c12 -34 26 -65 31 -67 4 -3 18 22 31 55 12 33 26 60 29 60 4 0 10 -24 13
-53 7 -52 20 -86 30 -76 9 9 -29 184 -39 183 -6 -1 -21 -29 -34 -63 -13 -34
-27 -59 -30 -55 -3 3 -15 31 -27 62 -11 31 -25 57 -31 59 -6 2 -17 -33 -27
-84z"/>
<path d="M10915 9253 c-39 -98 -63 -173 -55 -173 5 0 14 9 20 20 16 30 92 28
113 -2 28 -43 24 -13 -11 80 -34 89 -53 110 -67 75z m54 -100 c1 -8 -12 -13
-34 -13 -40 0 -40 0 -18 59 l17 44 17 -39 c10 -21 18 -45 18 -51z"/>
<path d="M11040 9265 c0 -2 14 -26 30 -52 21 -33 30 -59 30 -90 0 -24 5 -43
10 -43 6 0 10 21 10 46 0 34 7 56 30 89 33 47 35 55 20 55 -6 0 -20 -16 -31
-35 -12 -19 -25 -35 -29 -35 -5 0 -18 16 -30 35 -18 30 -40 46 -40 30z"/>
<path d="M11588 9188 c-3 -82 -3 -83 -30 -86 -37 -4 -36 -22 2 -22 40 0 50 23
50 114 0 103 -18 97 -22 -6z"/>
<path d="M11650 9195 c0 -88 17 -115 74 -115 54 0 76 36 76 121 0 39 -4 69
-10 69 -6 0 -10 -29 -10 -68 0 -76 -16 -102 -61 -102 -40 0 -49 18 -49 97 0
42 -4 73 -10 73 -6 0 -10 -32 -10 -75z"/>
<path d="M11830 9175 c0 -114 18 -129 22 -18 l3 77 49 -77 c65 -104 76 -102
76 18 0 114 -18 129 -22 18 l-3 -77 -50 77 c-27 42 -55 77 -62 77 -10 0 -13
-24 -13 -95z"/>
<path d="M12475 9258 c-3 -7 -6 -44 -7 -83 -3 -68 -4 -70 -30 -73 -37 -4 -36
-22 1 -22 45 0 61 31 61 117 0 44 -4 73 -10 73 -6 0 -13 -6 -15 -12z"/>
<path d="M12530 9195 c0 -88 17 -115 74 -115 54 0 76 36 76 121 0 39 -4 69
-10 69 -6 0 -10 -29 -10 -68 0 -76 -16 -102 -61 -102 -40 0 -49 18 -49 97 0
42 -4 73 -10 73 -6 0 -10 -32 -10 -75z"/>
<path d="M12710 9175 l0 -95 55 0 c30 0 55 5 55 10 0 6 -20 10 -45 10 l-45 0
0 85 c0 50 -4 85 -10 85 -6 0 -10 -38 -10 -95z"/>
<path d="M13233 9182 c-18 -49 -33 -92 -33 -96 0 -15 19 -4 25 14 5 16 15 20
55 20 40 0 50 -4 55 -20 6 -19 26 -29 24 -12 -1 29 -67 177 -79 180 -11 1 -25
-24 -47 -86z m70 3 l16 -45 -40 0 c-29 0 -39 4 -35 13 2 6 10 29 17 49 14 45
22 42 42 -17z"/>
<path d="M13390 9201 c0 -85 22 -121 76 -121 57 0 74 27 74 115 0 43 -4 75
-10 75 -6 0 -10 -31 -10 -73 0 -80 -9 -97 -51 -97 -41 0 -59 33 -59 107 0 35
-4 63 -10 63 -6 0 -10 -30 -10 -69z"/>
<path d="M7418 8548 c-2 -13 -2 -78 0 -145 l3 -123 300 0 299 0 0 145 0 145
-299 0 -300 0 -3 -22z"/>
<path d="M11888 8548 c-2 -13 -2 -78 0 -145 l3 -123 110 0 109 0 0 145 0 145
-109 0 c-106 0 -110 -1 -113 -22z"/>
<path d="M8110 8494 c-1 -32 36 -154 46 -154 6 0 18 26 26 58 l15 57 12 -45
c7 -25 14 -51 16 -57 9 -28 23 -10 40 55 10 37 20 73 23 80 2 6 0 12 -5 12 -5
0 -18 -28 -28 -62 l-18 -63 -14 55 c-19 74 -29 81 -43 29 -22 -88 -22 -87 -39
-27 -15 52 -31 84 -31 62z"/>
<path d="M8310 8420 c0 -47 4 -80 10 -80 6 0 10 33 10 80 0 47 -4 80 -10 80
-6 0 -10 -33 -10 -80z"/>
<path d="M8360 8420 c0 -47 4 -80 10 -80 6 0 10 13 10 29 0 25 5 31 30 36 68
15 55 95 -15 95 l-35 0 0 -80z m76 45 c8 -20 -13 -45 -37 -45 -14 0 -19 7 -19
30 0 25 4 30 25 30 14 0 28 -7 31 -15z"/>
<path d="M8480 8420 c0 -47 4 -80 10 -80 6 0 10 14 10 30 0 20 5 30 15 30 8 0
21 -13 30 -30 9 -16 20 -30 26 -30 5 0 2 14 -6 31 -15 28 -15 32 -1 48 34 37
7 81 -50 81 l-34 0 0 -80z m75 30 c0 -20 -6 -26 -27 -28 -25 -3 -28 0 -28 28
0 28 3 31 28 28 21 -2 27 -8 27 -28z"/>
<path d="M8633 8478 c-30 -34 -36 -63 -19 -96 39 -76 146 -46 146 40 0 67 -83
103 -127 56z m105 -30 c16 -34 2 -74 -33 -90 -22 -10 -30 -8 -53 9 -33 24 -39
56 -17 89 23 36 84 31 103 -8z"/>
<path d="M10340 8490 c0 -5 11 -10 25 -10 24 0 25 -2 25 -70 0 -40 4 -70 10
-70 6 0 10 30 10 70 0 68 1 70 25 70 14 0 25 5 25 10 0 6 -27 10 -60 10 -33 0
-60 -4 -60 -10z"/>
<path d="M10509 8481 c-18 -14 -24 -29 -24 -61 0 -32 6 -47 24 -61 28 -23 84
-25 101 -4 15 18 7 19 -22 4 -27 -15 -76 6 -84 36 -9 36 -2 56 28 78 24 18 28
18 57 4 33 -17 44 -5 12 13 -30 15 -66 12 -92 -9z"/>
<path d="M10668 8489 c-40 -23 -10 -68 55 -83 32 -8 35 -31 6 -47 -16 -8 -28
-8 -46 0 -32 15 -38 14 -23 -4 24 -29 110 -10 110 24 0 18 -28 40 -60 49 -25
6 -35 14 -35 28 0 23 48 32 71 13 11 -9 14 -8 14 4 0 26 -58 36 -92 16z"/>
<path d="M12535 8488 c-73 -42 -51 -148 31 -148 79 0 104 109 33 145 -33 18
-38 18 -64 3z m70 -28 c24 -27 22 -70 -5 -92 -27 -22 -39 -22 -68 -2 -43 30
-19 114 33 114 12 0 30 -9 40 -20z"/>
<path d="M12694 8490 c-12 -4 -24 -16 -28 -26 -8 -20 19 -54 44 -54 9 0 25 -6
36 -14 18 -14 18 -16 1 -33 -14 -15 -22 -16 -47 -6 -17 6 -30 7 -30 2 0 -13
46 -22 74 -15 53 13 37 60 -27 82 -18 6 -33 18 -35 27 -4 21 39 32 67 17 14
-7 21 -7 21 0 0 8 -44 32 -53 29 -1 0 -11 -4 -23 -9z"/>
<path d="M12960 8487 c-16 -8 -25 -21 -25 -37 0 -20 8 -27 44 -40 52 -18 62
-35 28 -51 -18 -8 -30 -8 -47 1 -12 6 -24 9 -27 7 -9 -10 38 -28 64 -25 62 7
54 66 -11 81 -26 7 -36 14 -36 28 0 24 44 36 65 19 17 -14 35 -5 19 9 -18 17
-49 20 -74 8z"/>
<path d="M12200 8415 c0 -43 4 -75 10 -75 6 0 10 32 10 75 0 43 -4 75 -10 75
-6 0 -10 -32 -10 -75z"/>
<path d="M12250 8415 c0 -43 4 -75 10 -75 6 0 10 26 10 58 l0 57 38 -57 c20
-32 40 -58 45 -58 4 0 6 35 5 78 l-1 77 -6 -60 -6 -60 -39 58 c-21 31 -43 57
-47 57 -5 0 -9 -34 -9 -75z"/>
<path d="M12390 8413 c0 -47 4 -73 9 -67 5 5 11 23 13 39 2 24 7 29 25 27 12
-2 24 2 28 8 4 6 -6 10 -24 10 -26 0 -31 4 -31 24 0 21 5 25 38 29 34 3 33 4
-10 5 l-48 2 0 -77z"/>
<path d="M12800 8484 c0 -3 10 -20 22 -37 12 -17 25 -49 29 -71 6 -41 7 -41 8
-7 0 19 12 54 26 78 14 23 21 43 16 43 -6 0 -18 -14 -27 -32 l-16 -31 -19 24
c-10 13 -19 27 -19 32 0 8 -20 10 -20 1z"/>
<path d="M9810 7700 c-308 -47 -555 -149 -800 -328 -92 -68 -158 -131 -352
-335 -133 -139 -149 -159 -137 -174 8 -9 377 -339 822 -735 l807 -718 96 99
c52 55 103 110 114 124 20 25 20 26 -15 504 -19 263 -50 699 -69 968 -20 270
-38 518 -41 553 l-7 62 -151 -1 c-91 0 -198 -8 -267 -19z"/>
<path d="M10466 6940 c-124 -130 -114 -89 -91 -396 58 -778 115 -1598 111
-1601 -2 -3 -82 65 -178 150 -95 86 -456 408 -803 716 l-630 561 -18 -23 c-11
-12 -33 -38 -50 -57 -18 -19 -32 -38 -32 -42 0 -5 -4 -8 -9 -7 -13 2 -91 -78
-159 -161 -475 -586 -535 -1416 -155 -2159 66 -130 173 -295 273 -419 l65 -83
49 38 c27 21 364 301 750 622 502 418 729 613 799 687 53 57 101 104 105 104
5 0 7 -28 6 -61 -2 -59 -1 -63 32 -92 19 -16 63 -57 99 -91 36 -34 90 -83 120
-110 30 -27 89 -81 131 -120 101 -95 237 -218 274 -249 17 -14 55 -49 86 -78
31 -30 73 -70 95 -89 49 -43 165 -150 264 -244 42 -39 94 -87 116 -106 50 -43
226 -205 307 -282 33 -32 64 -58 69 -58 5 0 7 -4 4 -9 -3 -4 5 -8 18 -7 15 1
57 37 129 115 59 63 107 117 106 120 0 3 -239 224 -530 491 -844 772 -950 869
-1022 936 l-67 64 -74 1020 c-40 562 -76 1023 -78 1026 -3 2 -53 -45 -112
-106z m-2009 -1472 c-3 -8 -6 -5 -6 6 -1 11 2 17 5 13 3 -3 4 -12 1 -19z m-10
-80 c-3 -7 -5 -2 -5 12 0 14 2 19 5 13 2 -7 2 -19 0 -25z m-10 -110 c-2 -13
-4 -5 -4 17 -1 22 1 32 4 23 2 -10 2 -28 0 -40z m0 -260 c-2 -13 -4 -5 -4 17
-1 22 1 32 4 23 2 -10 2 -28 0 -40z m10 -110 c-3 -7 -5 -2 -5 12 0 14 2 19 5
13 2 -7 2 -19 0 -25z m10 -70 c-3 -8 -6 -5 -6 6 -1 11 2 17 5 13 3 -3 4 -12 1
-19z"/>
<path d="M10345 4650 c-3 -6 1 -7 9 -4 18 7 21 14 7 14 -6 0 -13 -4 -16 -10z"/>
<path d="M10165 4500 c-3 -5 -2 -10 4 -10 5 0 13 5 16 10 3 6 2 10 -4 10 -5 0
-13 -4 -16 -10z"/>
<path d="M9867 4253 c-3 -5 6 -9 20 -10 19 -1 22 1 12 8 -17 11 -26 11 -32 2z"/>
<path d="M9809 4203 c-13 -16 -12 -17 4 -4 16 13 21 21 13 21 -2 0 -10 -8 -17
-17z"/>
<path d="M9205 3700 c-3 -6 1 -7 9 -4 18 7 21 14 7 14 -6 0 -13 -4 -16 -10z"/>
<path d="M8951 3471 l-111 -119 104 -105 c618 -625 1507 -867 2268 -617 294
97 547 262 766 500 60 65 72 82 38 53 -27 -24 -53 -40 -59 -36 -5 3 -8 2 -5
-3 4 -5 -23 -29 -58 -53 -56 -39 -65 -42 -81 -30 -16 13 -17 12 -5 -2 11 -15
7 -20 -30 -42 -120 -69 -341 -162 -365 -153 -7 3 -13 2 -13 -3 0 -11 -88 -33
-101 -26 -5 4 -9 1 -9 -6 0 -6 -8 -9 -20 -6 -11 3 -20 2 -20 -3 0 -13 -210
-41 -355 -47 -208 -8 -421 17 -652 78 -49 13 -80 26 -76 32 3 6 1 7 -5 3 -16
-10 -63 4 -55 17 3 6 1 7 -6 3 -16 -10 -152 44 -144 57 4 6 1 7 -7 2 -16 -10
-151 55 -143 68 3 6 1 7 -5 3 -12 -7 -102 38 -113 56 -3 5 -9 9 -13 9 -19 -3
-27 0 -22 7 3 5 0 9 -7 9 -21 0 -67 35 -60 46 3 6 1 7 -5 3 -20 -12 -34 4 -20
22 12 15 11 16 -4 4 -15 -12 -24 -9 -65 19 -103 70 -326 266 -317 280 3 5 0 8
-8 7 -7 -2 -12 3 -10 10 1 8 -2 11 -7 8 -13 -8 -34 21 -25 35 4 7 3 9 -3 6 -6
-4 -18 2 -28 13 -10 11 -21 20 -25 20 -4 0 -57 -54 -119 -119z"/>
<path d="M9626 3152 c-3 -5 1 -9 9 -9 8 0 12 4 9 9 -3 4 -7 8 -9 8 -2 0 -6 -4
-9 -8z"/>
<path d="M8970 1945 l0 -265 330 0 330 0 0 265 0 265 -330 0 -330 0 0 -265z"/>
<path d="M9738 2024 c-5 -4 -8 -45 -8 -91 l0 -83 46 0 c37 0 51 5 75 29 57 58
24 138 -61 148 -25 3 -48 1 -52 -3z m100 -52 c29 -36 -2 -92 -50 -92 -15 0
-18 9 -18 54 0 55 9 68 40 58 8 -3 21 -12 28 -20z"/>
<path d="M9904 2015 c-12 -30 2 -124 21 -145 24 -27 76 -26 101 1 25 28 28
154 4 154 -11 0 -16 -17 -20 -70 l-5 -70 -30 0 c-30 0 -30 0 -35 69 -5 68 -22
97 -36 61z"/>
<path d="M10077 2023 c-4 -3 -7 -44 -7 -90 0 -76 2 -83 20 -83 18 0 20 7 20
58 l0 57 33 -55 c18 -30 41 -56 50 -58 15 -3 17 8 17 88 0 69 -3 91 -12 88 -8
-3 -15 -28 -18 -59 l-5 -54 -33 58 c-31 53 -49 67 -65 50z"/>
<path d="M10240 2011 c0 -16 8 -20 46 -23 l47 -3 -47 -51 c-65 -73 -62 -84 24
-84 56 0 70 3 70 15 0 11 -12 15 -45 15 -25 0 -45 3 -45 8 0 4 20 27 45 52 25
26 44 55 45 68 0 21 -4 22 -70 22 -63 0 -70 -2 -70 -19z"/>
<path d="M10429 2001 c-32 -33 -37 -67 -14 -110 39 -77 155 -42 155 46 -1 42
-13 63 -47 81 -35 19 -63 14 -94 -17z m89 -17 c43 -30 20 -104 -33 -104 -26 0
-55 33 -55 62 0 21 34 58 53 58 7 0 23 -7 35 -16z"/>
<path d="M11717 2013 c-16 -16 -4 -23 38 -23 25 0 45 -3 45 -6 0 -3 -20 -30
-45 -58 -25 -29 -45 -58 -45 -65 0 -7 24 -11 70 -11 54 0 70 3 70 14 0 10 -14
16 -45 18 l-45 3 45 52 c63 72 60 83 -18 83 -35 0 -67 -3 -70 -7z"/>
<path d="M11895 1995 c-31 -30 -33 -82 -4 -119 45 -57 139 -17 139 59 0 46
-36 85 -80 85 -19 0 -40 -9 -55 -25z m89 -21 c33 -33 12 -94 -32 -94 -35 0
-52 17 -52 51 0 32 23 59 50 59 10 0 26 -7 34 -16z"/>
<path d="M12085 1998 c-29 -131 -31 -148 -11 -148 9 0 17 18 23 48 l9 47 22
-48 c24 -55 36 -54 53 3 14 47 24 44 33 -10 4 -26 11 -40 21 -40 8 0 15 1 15
3 0 1 -7 37 -15 80 -8 43 -15 81 -15 83 0 2 -6 4 -13 4 -7 0 -21 -23 -31 -50
-10 -28 -21 -48 -25 -45 -3 4 -12 25 -21 47 -17 48 -37 59 -45 26z"/>
<path d="M12308 1942 c-33 -91 -33 -92 -13 -92 8 0 15 7 15 15 0 21 69 20 85
-1 6 -9 16 -15 22 -13 7 2 -1 36 -20 87 -39 107 -53 108 -89 4z m61 -19 c1 -7
-8 -13 -19 -13 -23 0 -23 0 -9 37 10 26 12 27 19 8 5 -11 9 -26 9 -32z"/>
<path d="M12450 2006 c0 -8 10 -16 23 -18 20 -3 22 -9 25 -70 2 -52 6 -68 17
-68 12 0 15 15 15 70 0 68 1 70 25 70 16 0 25 6 25 15 0 12 -14 15 -65 15 -50
0 -65 -3 -65 -14z"/>
<path d="M12625 1995 c-31 -30 -33 -82 -4 -119 16 -20 29 -26 59 -26 30 0 43
6 59 26 45 58 10 144 -59 144 -19 0 -40 -9 -55 -25z m89 -21 c33 -33 12 -94
-32 -94 -35 0 -52 17 -52 51 0 32 23 59 50 59 10 0 26 -7 34 -16z"/>
<path d="M10990 1180 l0 -250 315 0 315 0 0 250 0 250 -315 0 -315 0 0 -250z"/>
<path d="M11720 1175 l0 -85 45 0 c36 0 48 5 60 24 13 19 14 29 5 45 -6 11 -8
31 -4 45 7 30 -26 56 -73 56 l-33 0 0 -85z m75 35 c0 -8 -10 -16 -22 -18 -18
-3 -23 2 -23 18 0 16 5 21 23 18 12 -2 22 -10 22 -18z m5 -55 c16 -19 4 -35
-26 -35 -19 0 -24 5 -24 25 0 29 29 35 50 10z"/>
<path d="M11860 1175 l0 -85 50 0 c38 0 50 4 50 15 0 10 -11 15 -35 15 l-35 0
0 70 c0 56 -3 70 -15 70 -12 0 -15 -16 -15 -85z"/>
<path d="M11990 1175 c0 -69 3 -85 15 -85 12 0 15 16 15 85 0 69 -3 85 -15 85
-12 0 -15 -16 -15 -85z"/>
<path d="M12050 1176 c0 -68 3 -86 14 -86 11 0 16 15 18 53 l3 52 30 -52 c18
-32 37 -53 48 -53 15 0 17 11 17 85 0 69 -3 85 -15 85 -12 0 -15 -13 -15 -57
l0 -58 -33 55 c-18 30 -41 56 -50 58 -15 3 -17 -7 -17 -82z"/>
<path d="M12210 1176 c0 -70 3 -86 15 -86 10 0 15 10 15 33 l1 32 27 -33 c15
-18 33 -32 40 -32 18 0 15 9 -13 46 -14 18 -25 36 -25 41 0 5 14 25 31 46 28
34 29 37 10 37 -11 0 -31 -14 -43 -31 l-23 -31 -5 28 c-3 15 -11 29 -17 32
-10 3 -13 -18 -13 -82z"/>
<path d="M12410 1175 c0 -69 3 -85 15 -85 12 0 15 16 15 85 0 69 -3 85 -15 85
-12 0 -15 -16 -15 -85z"/>
<path d="M12467 1254 c-10 -11 2 -24 24 -24 16 0 19 -8 20 -52 1 -29 1 -61 0
-70 -2 -12 5 -18 18 -18 19 0 21 6 21 70 0 69 1 70 26 70 16 0 24 5 22 13 -5
13 -119 23 -131 11z"/>
<path d="M9751 1211 c-36 -36 -25 -65 35 -86 57 -19 51 -41 -10 -37 -49 2 -49
2 -31 -18 22 -24 86 -27 104 -6 7 8 11 27 9 43 -2 22 -11 30 -46 43 -46 16
-54 28 -28 45 11 7 22 6 37 -3 15 -10 24 -11 32 -3 16 16 -2 31 -45 37 -28 5
-40 2 -57 -15z"/>
<path d="M9890 1218 c0 -7 4 -29 9 -48 6 -19 15 -54 21 -77 8 -32 16 -43 30
-43 15 0 21 9 26 40 9 56 20 58 33 5 8 -33 16 -45 30 -45 14 0 21 16 37 83 20
90 20 90 5 95 -12 4 -14 -1 -32 -68 l-12 -45 -16 54 c-9 30 -22 56 -28 58 -7
3 -19 -19 -29 -54 l-17 -58 -12 46 c-7 26 -15 52 -19 58 -10 15 -26 14 -26 -1z"/>
<path d="M10130 1140 c0 -73 3 -90 15 -90 12 0 15 17 15 90 0 73 -3 90 -15 90
-12 0 -15 -17 -15 -90z"/>
<path d="M10219 1201 c-32 -33 -37 -67 -14 -110 16 -32 33 -41 76 -41 35 0 79
39 79 70 0 16 -6 20 -35 20 -38 0 -45 -13 -17 -29 15 -9 15 -12 2 -21 -26 -17
-59 -11 -76 15 -33 50 15 113 65 86 21 -12 41 -8 41 8 0 11 -47 31 -71 31 -11
0 -34 -13 -50 -29z"/>
<path d="M10429 1215 c-15 -8 -32 -28 -37 -44 -33 -95 78 -166 142 -90 36 43
34 59 -9 59 -24 0 -35 -5 -35 -15 0 -8 7 -15 16 -15 14 0 14 -3 4 -15 -30 -36
-90 -6 -90 44 0 46 50 77 77 50 7 -7 20 -8 30 -5 17 7 16 9 -6 27 -27 22 -56
24 -92 4z"/>
<path d="M10580 1223 c0 -5 11 -26 25 -48 16 -26 24 -55 25 -82 0 -36 3 -43
20 -43 17 0 20 7 20 46 0 32 7 56 25 82 29 42 31 52 11 52 -8 0 -23 -13 -33
-30 -9 -16 -21 -30 -25 -30 -4 0 -14 14 -23 30 -14 27 -45 42 -45 23z"/>
</g>
</svg>
