<?xml version="1.0" standalone="no"?>
<!DOCTYPE svg PUBLIC "-//W3C//DTD SVG 20010904//EN"
 "http://www.w3.org/TR/2001/REC-SVG-20010904/DTD/svg10.dtd">
<svg version="1.0" xmlns="http://www.w3.org/2000/svg"
 width="2100.000000pt" height="1500.000000pt" viewBox="0 0 2100.000000 1500.000000"
 preserveAspectRatio="xMidYMid meet">

<g transform="translate(0.000000,1500.000000) scale(0.100000,-0.100000)"
fill="#000000" stroke="none">
<path d="M8047 9812 c-1390 -1390 -2530 -2530 -2534 -2534 -3 -5 356 -8 799
-8 l806 0 1154 1149 1153 1148 3 -1148 2 -1149 580 0 580 0 0 2535 c0 1394 -3
2535 -7 2535 -5 0 -1146 -1138 -2536 -2528z"/>
<path d="M10710 9820 l0 -2511 1023 4 c991 3 1026 4 1155 25 472 76 877 264
1233 571 471 406 762 919 856 1511 26 165 26 637 0 795 -75 455 -231 806 -514
1160 -320 400 -757 703 -1211 841 -136 41 -209 57 -387 86 -125 21 -168 22
-1142 25 l-1013 4 0 -2511z m2087 1402 c292 -67 525 -200 734 -419 151 -158
259 -334 323 -524 96 -287 94 -637 -4 -930 -134 -401 -490 -755 -894 -888
-191 -64 -190 -64 -698 -68 l-468 -4 0 1431 0 1431 458 -4 c422 -3 464 -5 549
-25z"/>
<path d="M10345 7077 c-92 -45 -157 -104 -192 -175 l-28 -57 -3 -318 c-4 -389
-1 -408 72 -485 59 -63 251 -193 416 -283 145 -78 213 -123 245 -161 l25 -30
0 -303 c0 -169 -4 -315 -10 -329 -18 -49 -53 -61 -191 -64 -218 -6 -219 -5
-219 343 l0 245 -170 0 -170 0 0 -316 0 -316 30 -63 c40 -85 108 -158 178
-192 l57 -28 280 0 280 0 60 30 c33 16 87 57 121 90 98 96 96 83 92 607 -3
389 -5 447 -19 473 -44 80 -217 209 -449 336 -139 75 -214 125 -258 170 l-32
33 0 203 c0 226 5 250 60 273 41 17 277 19 306 3 44 -25 54 -70 54 -231 0
-127 2 -151 16 -156 24 -9 297 -7 312 3 11 6 13 55 10 232 l-3 224 -39 73
c-45 85 -115 152 -184 178 -40 15 -88 18 -312 21 l-265 4 -70 -34z"/>
<path d="M14643 7102 c-7 -4 -28 -77 -47 -162 -19 -85 -96 -423 -171 -750 -75
-327 -172 -750 -215 -940 -43 -190 -97 -424 -119 -519 -22 -96 -38 -179 -35
-183 3 -4 79 -8 169 -8 147 0 165 2 174 18 9 17 63 234 96 385 l17 77 279 0
278 0 9 -37 c5 -21 24 -107 41 -191 18 -85 40 -175 49 -200 l18 -47 167 -3
c147 -2 167 -1 167 13 0 19 -237 1084 -321 1445 -33 140 -82 361 -110 490 -59
285 -126 555 -145 592 l-15 28 -137 0 c-75 0 -142 -4 -149 -8z m251 -1307 c53
-236 96 -433 96 -437 0 -5 -90 -8 -201 -8 -186 0 -200 1 -195 18 3 9 41 186
85 392 44 206 85 399 92 428 6 30 15 50 19 45 4 -4 51 -201 104 -438z"/>
<path d="M14770 5963 c1 -23 36 -70 46 -61 4 4 3 22 -2 40 -11 36 -44 52 -44
21z"/>
<path d="M14747 5866 c-7 -17 24 -60 75 -105 38 -33 38 -33 38 -9 0 28 -49
102 -79 117 -25 14 -28 14 -34 -3z"/>
<path d="M14720 5757 c0 -7 37 -51 82 -97 62 -65 83 -81 86 -67 5 24 -29 76
-88 131 -48 45 -80 58 -80 33z"/>
<path d="M14704 5665 c-6 -15 101 -142 174 -206 37 -33 37 -33 40 -10 3 17 -9
37 -40 70 -160 171 -164 174 -174 146z"/>
<path d="M14681 5561 c-9 -16 0 -30 57 -90 51 -54 73 -71 95 -71 15 0 27 3 27
8 0 11 -150 172 -160 172 -5 0 -14 -9 -19 -19z"/>
<path d="M14655 5460 c-12 -19 24 -60 50 -60 30 0 31 9 4 44 -21 27 -43 33
-54 16z"/>
<path d="M15687 7104 c-4 -4 -7 -527 -8 -1163 0 -1076 -1 -1154 -16 -1131 -10
14 -53 61 -97 105 -59 59 -81 76 -83 63 -7 -30 28 -82 113 -165 63 -62 84 -89
84 -109 0 -24 -5 -21 -77 46 -59 55 -79 69 -81 56 -5 -23 34 -78 103 -146 36
-35 55 -63 55 -78 0 -21 -6 -18 -62 32 -86 78 -98 76 -49 -10 27 -47 163 -184
182 -184 5 0 4 12 -2 28 -7 19 18 -1 88 -70 76 -76 104 -98 126 -98 15 0 27 3
27 8 0 4 -44 51 -98 105 -81 81 -103 97 -128 97 -27 0 -64 25 -64 43 0 4 71 8
158 9 l157 3 0 1280 0 1280 -161 3 c-88 1 -163 -1 -167 -4z"/>
<path d="M5500 5820 l0 -1280 408 0 409 0 60 30 c89 45 147 100 185 178 l33
67 0 390 c0 353 -2 395 -18 443 -23 63 -81 140 -142 184 -24 18 -44 35 -45 38
0 3 20 18 45 33 60 39 110 98 137 166 22 54 23 66 23 401 l0 345 -32 68 c-43
90 -120 167 -196 195 -56 21 -73 22 -462 22 l-405 0 0 -1280z m700 937 c14 -7
33 -28 42 -47 16 -31 18 -68 18 -310 0 -384 10 -370 -252 -370 l-168 0 0 370
0 370 168 0 c113 0 175 -4 192 -13z m20 -1094 c18 -20 31 -48 35 -75 3 -24 5
-182 3 -351 l-3 -309 -33 -29 -32 -29 -175 0 -175 0 0 416 0 415 176 -3 176
-3 28 -32z"/>
<path d="M5880 6704 c0 -18 189 -229 205 -229 5 0 12 11 13 24 3 19 -17 44
-94 122 -96 97 -124 115 -124 83z"/>
<path d="M5980 6712 c0 -12 194 -202 207 -202 35 0 17 31 -68 116 -63 64 -101
94 -116 94 -13 0 -23 -3 -23 -8z"/>
<path d="M6100 6712 c0 -10 93 -102 103 -102 19 0 5 59 -21 83 -26 25 -82 38
-82 19z"/>
<path d="M5880 6583 c0 -22 23 -50 102 -130 57 -57 106 -103 110 -103 5 0 8
12 8 26 0 21 -24 52 -102 130 -56 57 -105 104 -110 104 -4 0 -8 -12 -8 -27z"/>
<path d="M5880 6458 c0 -15 34 -57 102 -125 57 -57 106 -103 110 -103 5 0 8
10 8 23 0 15 -33 55 -103 125 -56 56 -106 102 -110 102 -4 0 -7 -10 -7 -22z"/>
<path d="M5880 6333 c0 -22 23 -51 102 -131 98 -99 117 -109 118 -63 0 15
-198 221 -212 221 -4 0 -8 -12 -8 -27z"/>
<path d="M5880 6212 c0 -36 104 -142 139 -142 14 0 21 5 19 14 -4 18 -136 156
-149 156 -5 0 -9 -13 -9 -28z"/>
<path d="M5880 6090 c0 -13 7 -20 20 -20 23 0 26 10 8 28 -18 18 -28 15 -28
-8z"/>
<path d="M5940 5642 c0 -4 44 -52 99 -106 78 -78 103 -97 122 -94 22 3 14 13
-75 106 -70 71 -107 102 -123 102 -13 0 -23 -3 -23 -8z"/>
<path d="M6060 5642 c0 -10 133 -142 143 -142 4 0 7 11 7 25 0 39 -84 125
-121 125 -16 0 -29 -3 -29 -8z"/>
<path d="M5880 5593 c1 -21 24 -53 100 -131 96 -99 120 -114 120 -72 0 19
-194 230 -211 230 -5 0 -9 -12 -9 -27z"/>
<path d="M5880 5473 c0 -22 23 -50 102 -130 57 -57 106 -103 110 -103 5 0 8
12 8 26 0 19 -26 52 -102 130 -55 57 -105 104 -110 104 -4 0 -8 -12 -8 -27z"/>
<path d="M5880 5348 c0 -15 34 -57 102 -125 57 -57 106 -103 110 -103 5 0 8 9
8 21 0 20 -193 229 -212 229 -4 0 -8 -10 -8 -22z"/>
<path d="M5880 5223 c1 -21 25 -53 100 -132 94 -99 120 -114 120 -70 0 20
-194 229 -212 229 -4 0 -8 -12 -8 -27z"/>
<path d="M5880 5102 c0 -21 19 -46 83 -110 78 -77 108 -95 122 -72 6 10 -181
210 -197 210 -4 0 -8 -12 -8 -28z"/>
<path d="M5880 4977 c0 -29 39 -67 68 -67 31 0 28 10 -16 53 -44 43 -52 45
-52 14z"/>
<path d="M7318 7076 c-124 -51 -197 -115 -231 -204 -16 -39 -17 -133 -17
-1048 l0 -1005 28 -57 c38 -78 120 -164 184 -193 52 -23 60 -24 323 -24 l270
0 75 36 c128 61 193 146 208 270 4 35 7 489 7 1009 l0 945 -32 66 c-34 74 -89
140 -144 175 -75 47 -125 54 -378 54 -225 0 -239 -2 -293 -24z m475 -346 c19
-22 27 -46 32 -92 3 -35 5 -426 3 -870 -3 -800 -3 -807 -24 -835 -30 -41 -70
-57 -153 -61 -97 -6 -172 11 -211 48 l-30 28 0 877 0 877 29 29 29 29 150 0
150 0 25 -30z"/>
<path d="M7530 6708 c0 -15 173 -178 207 -196 16 -9 24 -9 29 -1 10 17 -185
209 -213 209 -13 0 -23 -6 -23 -12z"/>
<path d="M7650 6712 c0 -14 116 -123 123 -116 19 19 4 55 -35 88 -37 32 -88
48 -88 28z"/>
<path d="M7450 6674 c0 -23 209 -234 226 -227 30 11 10 42 -89 141 -97 97
-137 122 -137 86z"/>
<path d="M7450 6564 c0 -21 22 -50 97 -125 53 -55 103 -99 110 -99 7 0 13 10
13 22 0 22 -181 219 -207 226 -8 2 -13 -7 -13 -24z"/>
<path d="M7450 6439 c0 -24 184 -219 207 -219 33 0 5 43 -90 138 -56 56 -106
102 -110 102 -4 0 -7 -10 -7 -21z"/>
<path d="M7450 6313 c0 -23 20 -48 99 -127 93 -92 121 -109 121 -69 0 17 -185
216 -206 221 -9 2 -14 -6 -14 -25z"/>
<path d="M7456 6223 c-22 -22 0 -58 90 -153 98 -101 124 -118 124 -77 -1 24
-202 242 -214 230z"/>
<path d="M7450 6070 c0 -22 185 -220 206 -220 34 0 6 43 -89 138 -56 56 -106
102 -110 102 -4 0 -7 -9 -7 -20z"/>
<path d="M7457 5974 c-23 -24 -2 -60 90 -155 53 -54 102 -99 110 -99 7 0 13
10 12 23 0 25 -200 242 -212 231z"/>
<path d="M7450 5828 c0 -18 28 -54 96 -126 93 -99 124 -120 124 -84 -1 15
-132 158 -198 216 -22 19 -22 19 -22 -6z"/>
<path d="M7450 5708 c0 -18 27 -54 96 -126 93 -99 124 -120 124 -84 0 13 -130
152 -212 228 -5 4 -8 -4 -8 -18z"/>
<path d="M7457 5604 c-22 -22 -2 -58 89 -153 97 -102 124 -120 124 -78 -1 25
-201 243 -213 231z"/>
<path d="M7450 5458 c0 -15 32 -57 96 -125 92 -99 124 -121 124 -87 0 18 -149
185 -192 216 l-28 19 0 -23z"/>
<path d="M7450 5331 c0 -24 18 -46 102 -125 56 -53 105 -96 110 -96 4 0 8 7 8
16 0 17 -160 195 -197 220 -22 14 -23 13 -23 -15z"/>
<path d="M7457 5234 c-21 -21 0 -56 89 -151 97 -104 124 -122 124 -80 -1 25
-201 243 -213 231z"/>
<path d="M7450 5088 c0 -38 128 -168 165 -168 26 0 24 4 -47 82 -40 44 -84 88
-96 96 -21 14 -22 13 -22 -10z"/>
<path d="M7456 4982 c-10 -16 10 -49 35 -57 31 -10 31 -2 0 35 -18 22 -30 30
-35 22z"/>
<path d="M8846 7075 c-123 -50 -204 -124 -234 -214 -9 -25 -12 -303 -12 -1039
l0 -1005 31 -61 c39 -78 109 -149 179 -184 l55 -27 270 0 270 0 75 36 c133 64
198 154 209 288 4 40 6 492 6 1005 l-1 931 -31 66 c-34 74 -89 140 -144 175
-75 47 -125 54 -378 54 -226 0 -238 -1 -295 -25z m477 -345 c19 -22 27 -46 32
-92 3 -35 5 -425 3 -868 -3 -761 -4 -807 -21 -834 -28 -42 -90 -66 -175 -66
-97 0 -157 16 -193 52 l-29 30 0 875 0 875 29 29 29 29 150 0 150 0 25 -30z"/>
<path d="M9060 6708 c0 -20 198 -198 220 -198 11 0 20 3 20 8 0 4 -44 51 -98
105 -65 65 -105 97 -120 97 -12 0 -22 -6 -22 -12z"/>
<path d="M9180 6712 c0 -14 116 -123 123 -116 19 19 4 55 -35 88 -37 32 -88
48 -88 28z"/>
<path d="M8980 6674 c0 -23 209 -234 226 -227 30 11 10 42 -89 141 -97 97
-137 122 -137 86z"/>
<path d="M8980 6564 c0 -21 22 -50 97 -125 53 -55 103 -99 110 -99 7 0 13 10
13 22 0 22 -181 219 -207 226 -8 2 -13 -7 -13 -24z"/>
<path d="M8980 6439 c0 -24 184 -219 207 -219 32 0 6 40 -89 136 -56 57 -105
104 -110 104 -4 0 -8 -10 -8 -21z"/>
<path d="M8987 6343 c-4 -3 -7 -18 -7 -32 0 -20 24 -51 99 -125 93 -93 122
-109 121 -68 -1 20 -204 235 -213 225z"/>
<path d="M8980 6196 c0 -19 26 -53 96 -126 97 -101 124 -118 124 -79 0 22
-181 221 -207 227 -8 2 -13 -6 -13 -22z"/>
<path d="M8980 6078 c0 -21 23 -51 96 -128 53 -55 103 -100 110 -100 35 0 6
44 -96 145 -99 99 -110 107 -110 83z"/>
<path d="M8987 5973 c-23 -23 -2 -59 90 -154 53 -54 102 -99 110 -99 7 0 13
10 13 23 -1 24 -202 242 -213 230z"/>
<path d="M8980 5827 c0 -16 29 -55 96 -125 92 -98 124 -120 124 -86 0 16 -148
179 -197 217 -23 18 -23 18 -23 -6z"/>
<path d="M8980 5708 c0 -18 27 -54 96 -126 93 -99 124 -120 124 -84 0 13 -130
152 -212 228 -5 4 -8 -4 -8 -18z"/>
<path d="M8987 5604 c-22 -22 -2 -58 89 -153 97 -102 124 -120 124 -78 -1 25
-201 243 -213 231z"/>
<path d="M8980 5458 c0 -27 182 -228 206 -228 31 0 9 37 -78 132 -104 113
-128 131 -128 96z"/>
<path d="M8980 5331 c0 -24 18 -46 102 -125 56 -53 105 -96 110 -96 4 0 8 7 8
16 0 17 -160 195 -197 220 -22 14 -23 13 -23 -15z"/>
<path d="M8987 5234 c-22 -22 -1 -57 91 -153 53 -56 103 -101 110 -101 6 0 12
10 12 23 -1 25 -201 243 -213 231z"/>
<path d="M8980 5087 c0 -16 23 -48 69 -96 53 -55 74 -71 97 -71 l28 0 -34 38
c-140 152 -160 168 -160 129z"/>
<path d="M8985 4980 c-10 -17 23 -60 46 -60 20 0 20 0 -1 30 -26 36 -37 43
-45 30z"/>
<path d="M11454 7087 c-2 -7 -3 -80 -2 -162 l3 -150 227 -3 228 -2 2 -1113 3
-1112 168 -3 167 -2 0 1115 0 1115 223 2 222 3 3 163 2 162 -620 0 c-499 0
-622 -3 -626 -13z"/>
<path d="M16070 7023 c0 -21 22 -51 91 -125 92 -100 119 -116 119 -75 0 23
-152 197 -191 218 -17 8 -19 6 -19 -18z"/>
<path d="M12808 6972 c74 -83 142 -146 149 -138 9 9 -172 201 -193 205 -11 2
4 -22 44 -67z"/>
<path d="M15017 7023 c-7 -12 180 -200 189 -190 4 4 -36 50 -88 103 -52 53
-98 92 -101 87z"/>
<path d="M12750 6934 c0 -18 161 -198 191 -215 16 -8 19 -6 19 13 0 15 -32 57
-93 121 -90 95 -117 114 -117 81z"/>
<path d="M16070 6897 c0 -17 29 -54 102 -128 89 -91 102 -101 105 -81 3 17
-12 41 -63 98 -37 41 -85 89 -106 105 l-38 31 0 -25z"/>
<path d="M15054 6865 c20 -47 68 -105 138 -166 53 -46 58 -48 58 -27 0 32 -20
60 -109 151 -84 86 -110 99 -87 42z"/>
<path d="M6630 6832 c0 -13 149 -156 156 -149 4 3 -26 40 -66 82 -69 70 -90
86 -90 67z"/>
<path d="M11260 6823 c0 -21 173 -199 178 -183 5 15 -24 57 -87 123 -66 70
-91 86 -91 60z"/>
<path d="M8205 6800 c20 -40 168 -185 173 -170 6 17 -43 82 -108 144 -66 63
-89 72 -65 26z"/>
<path d="M9730 6817 c0 -8 20 -39 44 -68 55 -67 136 -136 136 -116 0 18 -30
58 -94 125 -59 62 -86 80 -86 59z"/>
<path d="M12750 6809 c0 -22 156 -201 191 -220 16 -8 19 -6 19 18 0 22 -22 51
-93 126 -50 53 -98 97 -104 97 -7 0 -13 -10 -13 -21z"/>
<path d="M16070 6785 c0 -31 30 -71 119 -160 86 -85 91 -88 91 -61 0 22 -18
49 -76 112 -88 97 -134 135 -134 109z"/>
<path d="M15074 6734 c3 -9 6 -20 6 -25 0 -12 180 -199 191 -199 17 0 8 32
-20 73 -66 96 -200 210 -177 151z"/>
<path d="M6640 6717 c0 -15 33 -55 105 -127 57 -57 107 -101 110 -98 14 14
-38 88 -116 166 -46 45 -87 82 -91 82 -4 0 -8 -10 -8 -23z"/>
<path d="M10610 6722 c0 -14 194 -212 208 -212 6 0 12 11 12 24 0 37 -156 196
-192 196 -16 0 -28 -4 -28 -8z"/>
<path d="M10730 6724 c0 -14 74 -94 86 -94 23 0 16 45 -11 74 -21 23 -75 37
-75 20z"/>
<path d="M8207 6713 c-19 -18 2 -47 103 -148 88 -88 110 -105 116 -91 10 27
-4 48 -105 151 -93 95 -102 101 -114 88z"/>
<path d="M9736 6704 c-9 -23 4 -40 113 -148 81 -81 101 -97 107 -82 4 9 3 26
-2 36 -10 22 -193 210 -204 210 -4 0 -11 -7 -14 -16z"/>
<path d="M10524 6705 c-4 -11 22 -46 83 -113 83 -89 133 -126 149 -109 8 8
-155 188 -197 218 -26 18 -30 19 -35 4z"/>
<path d="M11270 6698 c0 -24 177 -218 199 -218 30 0 3 46 -75 129 -100 106
-124 123 -124 89z"/>
<path d="M11638 6662 c106 -122 177 -174 196 -144 3 4 -38 52 -90 105 -79 80
-101 97 -126 97 l-30 0 50 -58z"/>
<path d="M11726 6698 c38 -47 119 -128 126 -128 4 0 8 12 8 28 0 40 -82 122
-123 122 -30 0 -30 0 -11 -22z"/>
<path d="M11840 6710 c0 -5 5 -10 10 -10 6 0 10 5 10 10 0 6 -4 10 -10 10 -5
0 -10 -4 -10 -10z"/>
<path d="M12400 6640 c92 -102 126 -130 156 -130 13 0 24 3 24 8 0 4 -42 51
-93 105 -81 85 -96 97 -126 97 l-33 0 72 -80z"/>
<path d="M12509 6651 c88 -99 137 -141 166 -141 14 0 25 4 25 8 0 4 -42 51
-92 105 -82 85 -97 97 -127 97 l-33 0 61 -69z"/>
<path d="M12639 6651 c83 -94 137 -141 161 -141 11 0 20 3 20 8 0 4 -42 51
-93 105 -75 79 -97 97 -121 97 -28 0 -27 -1 33 -69z"/>
<path d="M12756 6654 c81 -92 143 -144 170 -144 13 0 24 3 24 8 0 4 -42 51
-93 105 -81 85 -96 97 -125 97 l-34 0 58 -66z"/>
<path d="M16070 6652 c0 -24 19 -49 102 -133 97 -100 102 -103 105 -76 4 22
-8 41 -67 107 -40 44 -88 91 -106 105 l-34 26 0 -29z"/>
<path d="M12300 6641 c0 -19 158 -194 191 -212 16 -8 19 -6 19 13 0 15 -32 56
-94 121 -94 98 -116 113 -116 78z"/>
<path d="M6640 6593 c1 -22 23 -51 101 -131 55 -56 104 -100 109 -97 27 16 5
54 -87 149 -54 56 -104 102 -110 104 -8 2 -13 -7 -13 -25z"/>
<path d="M10510 6592 c0 -23 21 -50 102 -133 97 -100 102 -103 105 -76 4 23
-9 42 -77 117 -45 49 -93 96 -106 105 -23 15 -24 15 -24 -13z"/>
<path d="M11270 6575 c0 -18 26 -54 91 -125 91 -101 119 -119 119 -77 0 22
-153 197 -191 218 -16 8 -19 6 -19 -16z"/>
<path d="M8203 6573 c-1 -20 195 -223 214 -223 32 0 5 41 -89 136 -56 57 -107
104 -113 104 -7 0 -12 -8 -12 -17z"/>
<path d="M9730 6574 c0 -20 198 -224 217 -224 32 0 6 40 -89 136 -99 102 -128
121 -128 88z"/>
<path d="M15117 6583 c-12 -18 29 -78 106 -154 79 -79 97 -91 97 -66 0 33
-191 239 -203 220z"/>
<path d="M16070 6528 c0 -18 25 -52 86 -117 100 -106 124 -123 124 -89 -1 21
-124 161 -187 213 -23 18 -23 18 -23 -7z"/>
<path d="M12300 6516 c0 -18 26 -52 87 -116 47 -50 95 -95 105 -101 15 -8 18
-6 18 18 0 22 -22 50 -94 126 -51 53 -98 97 -105 97 -6 0 -11 -11 -11 -24z"/>
<path d="M6640 6473 c0 -22 21 -49 102 -130 57 -57 106 -103 110 -103 5 0 8
12 8 26 0 19 -25 53 -96 128 -53 55 -103 102 -110 104 -9 2 -14 -6 -14 -25z"/>
<path d="M10510 6474 c0 -22 20 -50 86 -122 47 -51 95 -97 105 -103 17 -8 19
-6 19 18 -1 21 -22 50 -88 119 -48 50 -95 97 -104 104 -16 11 -18 9 -18 -16z"/>
<path d="M11270 6454 c0 -19 21 -50 76 -110 42 -46 89 -93 105 -105 l29 -20 0
28 c0 21 -20 50 -86 121 -47 51 -95 97 -105 103 -16 8 -19 6 -19 -17z"/>
<path d="M8207 6463 c-18 -18 1 -47 97 -142 98 -97 126 -114 126 -74 0 15
-196 223 -210 223 -4 0 -10 -3 -13 -7z"/>
<path d="M9735 6449 c-6 -18 11 -40 99 -128 82 -81 108 -103 117 -94 8 8 9 19
3 32 -11 23 -193 211 -205 211 -4 0 -11 -10 -14 -21z"/>
<path d="M15150 6425 c0 -3 7 -21 14 -40 20 -47 66 -102 131 -159 l55 -47 0
31 c0 25 -16 48 -91 125 -82 85 -109 107 -109 90z"/>
<path d="M12300 6397 c0 -23 152 -197 191 -218 17 -8 19 -6 19 18 0 22 -22 50
-94 126 -52 53 -99 97 -105 97 -6 0 -11 -10 -11 -23z"/>
<path d="M16070 6396 c0 -16 28 -53 86 -115 48 -50 95 -96 105 -102 17 -8 19
-6 19 18 0 22 -21 50 -94 126 -52 53 -100 97 -105 97 -6 0 -11 -11 -11 -24z"/>
<path d="M6640 6348 c0 -15 34 -57 102 -125 57 -57 106 -103 110 -103 5 0 8
10 8 23 0 15 -33 55 -103 125 -56 56 -106 102 -110 102 -4 0 -7 -10 -7 -22z"/>
<path d="M10510 6349 c0 -43 150 -189 194 -189 18 0 -110 146 -166 190 l-28
21 0 -22z"/>
<path d="M8207 6344 c-4 -4 -7 -14 -7 -23 0 -19 199 -221 217 -221 36 0 7 49
-84 144 -96 100 -112 113 -126 100z"/>
<path d="M9737 6344 c-4 -4 -7 -14 -7 -22 0 -19 199 -222 217 -222 36 0 7 49
-84 144 -96 100 -112 113 -126 100z"/>
<path d="M11013 6332 c-8 -5 20 -40 80 -104 97 -102 128 -124 152 -111 11 7
-9 33 -88 116 -97 103 -117 116 -144 99z"/>
<path d="M11133 6332 c-18 -11 186 -222 214 -222 12 0 24 4 27 8 7 12 -196
222 -214 222 -8 0 -20 -4 -27 -8z"/>
<path d="M11250 6333 c1 -17 196 -213 213 -213 32 0 17 25 -74 123 -66 71 -97
97 -115 97 -13 0 -24 -3 -24 -7z"/>
<path d="M16070 6276 c0 -16 28 -53 86 -115 48 -50 95 -96 105 -102 17 -8 19
-6 19 18 0 22 -21 49 -96 126 -53 53 -100 97 -105 97 -5 0 -9 -11 -9 -24z"/>
<path d="M12300 6272 c0 -19 158 -195 191 -213 16 -8 19 -6 19 13 0 24 -178
218 -199 218 -6 0 -11 -8 -11 -18z"/>
<path d="M15180 6265 c0 -44 201 -269 208 -233 6 30 -29 82 -108 161 -68 67
-100 90 -100 72z"/>
<path d="M6640 6223 c0 -23 21 -49 103 -131 57 -56 106 -100 110 -96 20 20 -1
55 -89 148 -53 55 -103 102 -110 104 -9 2 -14 -6 -14 -25z"/>
<path d="M8200 6204 c0 -20 198 -224 217 -224 32 0 6 40 -89 136 -99 102 -128
121 -128 88z"/>
<path d="M9730 6204 c0 -20 198 -224 217 -224 33 0 5 43 -89 137 -101 101
-128 119 -128 87z"/>
<path d="M12300 6147 c0 -16 31 -57 96 -125 53 -56 100 -102 105 -102 5 0 9
12 9 28 0 21 -22 50 -94 125 -52 53 -99 97 -105 97 -6 0 -11 -11 -11 -23z"/>
<path d="M16070 6151 c0 -20 157 -193 192 -212 15 -8 18 -6 18 13 0 16 -31 55
-96 121 -53 53 -100 97 -105 97 -5 0 -9 -9 -9 -19z"/>
<path d="M6630 6107 c0 -15 33 -55 104 -126 98 -98 126 -114 126 -73 0 19
-198 222 -217 222 -7 0 -13 -10 -13 -23z"/>
<path d="M8206 6085 c-9 -24 3 -41 109 -145 77 -77 97 -92 105 -80 5 8 10 19
10 23 0 12 -192 211 -206 215 -6 2 -14 -4 -18 -13z"/>
<path d="M9736 6085 c-9 -24 3 -41 107 -144 90 -88 117 -103 117 -64 0 17
-186 216 -206 221 -6 2 -14 -4 -18 -13z"/>
<path d="M15236 6068 c25 -48 76 -108 134 -157 48 -41 50 -41 50 -18 0 17 -27
53 -86 116 -90 96 -129 119 -98 59z"/>
<path d="M12300 6026 c0 -17 29 -55 96 -125 53 -56 100 -101 105 -101 5 0 9
12 9 28 0 21 -22 50 -95 125 -52 53 -100 97 -105 97 -6 0 -10 -11 -10 -24z"/>
<path d="M16070 6026 c0 -19 26 -52 96 -126 53 -55 100 -100 105 -100 5 0 9
12 9 28 0 21 -21 48 -94 122 -52 52 -100 96 -105 98 -6 2 -11 -8 -11 -22z"/>
<path d="M6600 6013 c0 -20 198 -223 217 -223 33 0 5 43 -89 137 -101 102
-128 120 -128 86z"/>
<path d="M8212 5978 c-7 -7 -12 -19 -12 -28 0 -18 200 -220 218 -220 32 0 6
48 -70 128 -45 48 -91 97 -103 110 -16 17 -23 20 -33 10z"/>
<path d="M9742 5978 c-7 -7 -12 -19 -12 -26 0 -19 199 -222 217 -222 7 0 13
10 13 23 -1 33 -202 241 -218 225z"/>
<path d="M6553 5953 c-7 -2 -13 -10 -13 -17 0 -15 212 -226 228 -226 7 0 15 7
19 16 4 11 -27 49 -103 125 -60 60 -111 109 -114 108 -3 0 -11 -3 -17 -6z"/>
<path d="M15265 5915 c19 -47 74 -113 141 -170 50 -43 54 -45 54 -23 0 32 -20
60 -109 151 -84 86 -110 99 -86 42z"/>
<path d="M16070 5904 c0 -18 26 -52 97 -125 53 -54 100 -99 105 -99 4 0 8 12
8 28 0 21 -21 48 -98 125 -53 53 -101 97 -105 97 -4 0 -7 -11 -7 -26z"/>
<path d="M12300 5901 c0 -19 184 -221 201 -221 5 0 9 10 9 23 0 14 -32 55 -96
120 -53 53 -100 97 -105 97 -5 0 -9 -9 -9 -19z"/>
<path d="M6493 5893 c-25 -10 -11 -30 96 -137 79 -78 114 -107 126 -103 10 5
13 12 8 21 -8 15 -211 227 -215 225 -2 0 -9 -3 -15 -6z"/>
<path d="M8207 5854 c-18 -18 0 -44 95 -140 100 -103 128 -121 128 -86 0 20
-213 236 -223 226z"/>
<path d="M9737 5854 c-18 -18 0 -44 95 -140 100 -103 128 -121 128 -86 0 20
-213 236 -223 226z"/>
<path d="M10460 5764 c44 -45 100 -82 100 -66 0 16 -106 112 -125 112 -15 0
-10 -9 25 -46z"/>
<path d="M12300 5775 c0 -17 28 -53 96 -125 53 -55 100 -100 105 -100 5 0 9
12 9 28 0 21 -21 48 -98 125 -53 53 -101 97 -105 97 -4 0 -7 -11 -7 -25z"/>
<path d="M16070 5779 c0 -19 183 -219 202 -219 4 0 8 10 8 23 0 15 -31 54 -98
120 -53 53 -101 97 -105 97 -4 0 -7 -9 -7 -21z"/>
<path d="M15302 5748 c16 -45 191 -219 196 -195 2 10 -9 36 -24 58 -30 44
-159 169 -174 169 -5 0 -4 -14 2 -32z"/>
<path d="M8212 5728 c-7 -7 -12 -19 -12 -26 0 -18 199 -222 216 -222 35 0 2
54 -92 153 -77 81 -103 104 -112 95z"/>
<path d="M9737 5723 c-4 -3 -7 -13 -7 -21 0 -19 199 -222 217 -222 32 0 -2 57
-89 150 -89 95 -106 108 -121 93z"/>
<path d="M11288 5663 c28 -38 102 -109 102 -98 0 14 -100 125 -112 125 -5 0 0
-12 10 -27z"/>
<path d="M12300 5655 c0 -18 28 -53 102 -127 99 -101 102 -102 106 -74 3 25
-9 41 -95 128 -53 54 -101 98 -105 98 -5 0 -8 -11 -8 -25z"/>
<path d="M16070 5654 c0 -18 26 -52 97 -125 53 -54 100 -99 105 -99 4 0 8 12
8 28 0 21 -21 48 -98 125 -53 53 -101 97 -105 97 -4 0 -7 -11 -7 -26z"/>
<path d="M10680 5652 c0 -20 113 -112 137 -112 41 0 -14 63 -88 100 -42 22
-49 24 -49 12z"/>
<path d="M6630 5623 c0 -10 17 -39 38 -63 47 -57 141 -145 147 -138 8 8 -45
81 -105 145 -66 71 -80 81 -80 56z"/>
<path d="M15330 5617 c0 -26 62 -107 128 -167 36 -33 68 -57 70 -55 14 13 -17
64 -75 126 -78 82 -123 118 -123 96z"/>
<path d="M8206 5604 c-3 -9 -6 -20 -6 -26 0 -16 201 -218 217 -218 35 0 6 49
-89 151 -57 60 -106 109 -109 109 -4 0 -10 -7 -13 -16z"/>
<path d="M9736 5604 c-3 -9 -6 -20 -6 -26 0 -16 201 -218 217 -218 35 0 6 49
-89 151 -56 60 -105 109 -109 109 -4 0 -10 -7 -13 -16z"/>
<path d="M11270 5580 c0 -30 202 -231 207 -207 3 9 -12 39 -32 67 -35 48 -152
160 -167 160 -5 0 -8 -9 -8 -20z"/>
<path d="M16070 5534 c0 -21 22 -50 97 -125 53 -55 100 -99 105 -99 4 0 8 12
8 27 0 20 -22 50 -92 122 -51 53 -99 97 -105 99 -8 2 -13 -7 -13 -24z"/>
<path d="M12300 5529 c0 -14 37 -58 102 -123 92 -91 102 -99 106 -77 3 19 -15
43 -94 122 -54 55 -102 99 -106 99 -5 0 -8 -10 -8 -21z"/>
<path d="M6640 5483 c0 -22 23 -50 102 -130 57 -57 106 -103 110 -103 5 0 8
12 8 28 0 21 -23 50 -102 130 -55 56 -105 102 -110 102 -4 0 -8 -12 -8 -27z"/>
<path d="M8207 5483 c-17 -16 -1 -39 94 -138 99 -103 129 -123 129 -87 0 13
-140 163 -211 227 -3 3 -9 2 -12 -2z"/>
<path d="M9737 5483 c-4 -3 -7 -12 -7 -20 0 -18 199 -223 217 -223 31 0 5 41
-78 127 -107 110 -124 125 -132 116z"/>
<path d="M11270 5455 c0 -19 24 -51 87 -116 48 -50 95 -95 105 -100 15 -8 18
-5 18 18 0 22 -21 50 -95 126 -52 53 -99 97 -105 97 -5 0 -10 -11 -10 -25z"/>
<path d="M15375 5434 c20 -48 64 -103 133 -164 40 -36 58 -47 60 -36 6 27 -30
80 -106 159 -85 86 -112 99 -87 41z"/>
<path d="M12300 5404 c0 -18 26 -52 97 -125 53 -54 100 -99 105 -99 4 0 8 12
8 28 0 21 -22 50 -95 125 -52 53 -99 97 -105 97 -5 0 -10 -11 -10 -26z"/>
<path d="M16070 5409 c0 -14 35 -58 97 -120 53 -55 100 -99 105 -99 4 0 8 10
8 23 0 15 -31 54 -98 120 -53 53 -101 97 -105 97 -4 0 -7 -10 -7 -21z"/>
<path d="M6640 5358 c0 -15 34 -57 102 -125 57 -57 106 -103 110 -103 5 0 8
10 8 23 0 15 -33 55 -103 125 -56 56 -106 102 -110 102 -4 0 -7 -10 -7 -22z"/>
<path d="M8212 5358 c-6 -6 -12 -18 -12 -25 0 -17 199 -223 216 -223 8 0 14
10 14 23 -1 14 -38 61 -103 130 -81 85 -105 105 -115 95z"/>
<path d="M9742 5358 c-7 -7 -12 -18 -12 -25 0 -17 199 -223 216 -223 8 0 14
10 13 23 0 14 -37 60 -102 130 -81 84 -105 105 -115 95z"/>
<path d="M10510 5350 c0 -19 184 -220 201 -220 5 0 9 10 9 23 0 15 -31 54 -98
120 -53 53 -101 97 -105 97 -4 0 -7 -9 -7 -20z"/>
<path d="M11270 5336 c0 -18 26 -52 87 -116 47 -50 95 -95 105 -101 15 -8 18
-6 18 18 0 22 -21 50 -95 126 -52 53 -100 97 -105 97 -6 0 -10 -11 -10 -24z"/>
<path d="M16070 5282 c0 -21 21 -48 98 -125 53 -53 101 -97 105 -97 4 0 7 12
7 28 0 21 -21 48 -98 125 -53 53 -101 97 -105 97 -4 0 -7 -12 -7 -28z"/>
<path d="M12300 5279 c0 -19 183 -219 202 -219 4 0 8 10 8 23 0 14 -32 55 -96
120 -53 53 -100 97 -105 97 -5 0 -9 -9 -9 -21z"/>
<path d="M15412 5268 c16 -46 191 -220 196 -195 2 10 -9 36 -24 58 -30 44
-159 169 -174 169 -5 0 -4 -14 2 -32z"/>
<path d="M6640 5238 c0 -15 34 -57 102 -125 57 -57 106 -103 110 -103 5 0 8
10 8 23 0 15 -33 55 -103 125 -56 56 -106 102 -110 102 -4 0 -7 -10 -7 -22z"/>
<path d="M10510 5229 c0 -14 35 -58 97 -120 53 -55 100 -99 105 -99 4 0 8 10
8 23 0 15 -31 54 -98 120 -53 53 -101 97 -105 97 -4 0 -7 -10 -7 -21z"/>
<path d="M8207 5234 c-17 -17 -1 -40 94 -139 99 -103 129 -123 129 -87 0 20
-213 236 -223 226z"/>
<path d="M9737 5234 c-17 -17 -1 -42 95 -140 99 -102 128 -122 128 -86 0 20
-213 236 -223 226z"/>
<path d="M11270 5210 c0 -20 156 -192 192 -211 15 -8 18 -6 18 13 0 16 -32 55
-96 121 -53 53 -100 97 -105 97 -5 0 -9 -9 -9 -20z"/>
<path d="M12300 5159 c0 -14 35 -58 97 -120 53 -55 100 -99 105 -99 4 0 8 10
8 23 0 15 -31 54 -98 120 -53 53 -101 97 -105 97 -4 0 -7 -10 -7 -21z"/>
<path d="M16070 5157 c0 -15 31 -54 98 -120 53 -53 101 -97 105 -97 4 0 7 10
7 23 0 15 -31 54 -98 120 -53 53 -101 97 -105 97 -4 0 -7 -10 -7 -23z"/>
<path d="M15440 5132 c0 -31 58 -108 129 -172 69 -63 88 -62 55 2 -19 36 -114
139 -156 170 -27 19 -28 19 -28 0z"/>
<path d="M6647 5133 c-21 -21 0 -55 95 -150 57 -57 106 -103 110 -103 5 0 8
12 8 26 0 19 -25 53 -97 129 -101 106 -105 109 -116 98z"/>
<path d="M10510 5102 c0 -22 18 -46 84 -110 81 -79 107 -94 122 -71 6 11 -182
209 -198 209 -5 0 -8 -13 -8 -28z"/>
<path d="M8206 5113 c-3 -3 -6 -12 -6 -19 0 -18 199 -224 217 -224 30 0 6 39
-82 134 -90 98 -117 121 -129 109z"/>
<path d="M9730 5101 c0 -22 195 -231 216 -231 33 0 7 42 -89 143 -57 59 -109
107 -115 107 -7 0 -12 -9 -12 -19z"/>
<path d="M11270 5084 c0 -20 25 -51 102 -128 100 -99 102 -100 106 -72 3 25
-9 41 -95 128 -53 54 -101 98 -105 98 -5 0 -8 -12 -8 -26z"/>
<path d="M12300 5032 c0 -21 21 -48 98 -125 53 -53 101 -97 105 -97 4 0 7 12
7 28 0 21 -21 48 -98 125 -53 53 -101 97 -105 97 -4 0 -7 -12 -7 -28z"/>
<path d="M16070 5037 c0 -15 31 -54 98 -120 53 -53 101 -97 105 -97 4 0 7 10
7 23 0 15 -31 54 -98 120 -53 53 -101 97 -105 97 -4 0 -7 -10 -7 -23z"/>
<path d="M6640 4988 c0 -15 34 -57 102 -125 57 -57 106 -103 110 -103 5 0 8
10 8 23 0 15 -33 55 -103 125 -56 56 -106 102 -110 102 -4 0 -7 -10 -7 -22z"/>
<path d="M8205 4980 c-7 -23 49 -93 148 -187 61 -58 77 -64 77 -32 0 20 -193
239 -211 239 -4 0 -11 -9 -14 -20z"/>
<path d="M9735 4979 c-8 -23 0 -32 130 -166 72 -76 95 -88 95 -52 0 21 -192
239 -210 239 -5 0 -12 -9 -15 -21z"/>
<path d="M10510 4977 c0 -29 29 -57 58 -57 30 0 28 11 -11 48 -39 38 -47 40
-47 9z"/>
<path d="M11270 4959 c0 -14 35 -58 97 -120 53 -55 100 -99 105 -99 4 0 8 10
8 23 0 15 -31 54 -98 120 -53 53 -101 97 -105 97 -4 0 -7 -10 -7 -21z"/>
<path d="M14638 4912 c76 -87 149 -152 172 -152 11 0 20 3 20 8 0 4 -43 51
-94 105 -73 76 -100 97 -121 97 -27 0 -27 -1 23 -58z"/>
<path d="M14769 4901 c88 -99 137 -141 166 -141 14 0 25 3 25 8 0 4 -42 51
-93 105 -81 85 -96 97 -126 97 l-33 0 61 -69z"/>
<path d="M14889 4901 c108 -121 166 -164 185 -133 2 4 -37 51 -88 105 -80 85
-95 97 -125 97 l-33 0 61 -69z"/>
<path d="M14992 4928 c42 -51 58 -58 58 -26 0 38 -27 68 -62 68 l-31 0 35 -42z"/>
<path d="M16070 4912 c0 -21 21 -48 98 -125 53 -53 101 -97 105 -97 4 0 7 12
7 28 0 21 -21 48 -98 125 -53 53 -101 97 -105 97 -4 0 -7 -12 -7 -28z"/>
<path d="M12300 4910 c0 -19 184 -220 201 -220 5 0 9 10 9 23 0 15 -31 54 -98
120 -53 53 -101 97 -105 97 -4 0 -7 -9 -7 -20z"/>
<path d="M14530 4912 c0 -10 46 -66 101 -125 81 -87 104 -105 115 -96 8 6 14
17 14 23 0 17 -197 216 -215 216 -8 0 -15 -8 -15 -18z"/>
<path d="M6640 4863 c0 -22 23 -51 101 -131 55 -56 105 -100 110 -97 27 17 4
55 -94 153 -56 56 -106 102 -110 102 -4 0 -7 -12 -7 -27z"/>
<path d="M13157 4873 c-4 -3 -7 -80 -7 -170 l0 -163 170 0 170 0 0 170 0 170
-163 0 c-90 0 -167 -3 -170 -7z"/>
<path d="M8204 4856 c-7 -18 58 -98 149 -183 58 -55 77 -64 77 -37 0 16 -145
176 -194 215 -23 18 -27 18 -32 5z"/>
<path d="M9734 4856 c-6 -17 76 -116 160 -194 49 -45 66 -52 66 -26 0 16 -145
176 -194 215 -23 18 -27 19 -32 5z"/>
<path d="M11260 4848 c0 -15 32 -55 102 -125 57 -57 106 -103 110 -103 5 0 8
9 8 21 0 22 -181 221 -206 227 -9 2 -14 -5 -14 -20z"/>
<path d="M14517 4833 c-19 -18 1 -49 94 -147 55 -58 105 -106 109 -106 5 0 12
9 15 20 5 16 -15 44 -96 130 -101 109 -109 116 -122 103z"/>
<path d="M12300 4786 c0 -17 29 -55 96 -125 53 -56 100 -101 105 -101 5 0 9
12 9 28 0 21 -21 48 -98 125 -53 53 -101 97 -105 97 -4 0 -7 -11 -7 -24z"/>
<path d="M13540 4792 c0 -19 158 -195 191 -213 16 -8 19 -6 19 14 0 16 -29 54
-93 120 -93 97 -117 113 -117 79z"/>
<path d="M16070 4787 c0 -15 31 -54 98 -120 53 -53 101 -97 105 -97 4 0 7 10
7 23 0 15 -31 54 -98 120 -53 53 -101 97 -105 97 -4 0 -7 -10 -7 -23z"/>
<path d="M6620 4757 c0 -15 33 -55 104 -126 97 -97 126 -114 126 -75 0 19
-198 224 -217 224 -7 0 -13 -10 -13 -23z"/>
<path d="M8177 4756 c-7 -17 197 -236 219 -236 34 0 7 43 -89 143 -56 59 -108
107 -114 107 -6 0 -13 -6 -16 -14z"/>
<path d="M9707 4756 c-7 -17 197 -236 219 -236 34 0 7 43 -89 143 -56 59 -108
107 -114 107 -6 0 -13 -6 -16 -14z"/>
<path d="M11240 4755 c-15 -19 -13 -22 114 -152 69 -71 93 -90 103 -81 7 6 13
15 13 20 0 10 -196 220 -210 226 -4 1 -13 -4 -20 -13z"/>
<path d="M14487 4717 c-6 -15 195 -237 214 -237 5 0 9 10 9 23 0 15 -33 55
-99 122 -55 55 -104 101 -109 103 -5 1 -12 -4 -15 -11z"/>
<path d="M6570 4677 c0 -16 211 -227 228 -227 31 0 4 41 -90 136 -93 95 -138
125 -138 91z"/>
<path d="M8143 4683 c-7 -3 -13 -10 -13 -17 0 -20 203 -226 223 -226 34 0 16
33 -67 121 -97 103 -126 128 -143 122z"/>
<path d="M9673 4683 c-7 -3 -13 -11 -13 -18 0 -20 203 -225 223 -225 33 0 16
33 -60 115 -94 99 -134 133 -150 128z"/>
<path d="M12300 4664 c0 -18 26 -52 97 -125 53 -54 100 -99 105 -99 4 0 8 12
8 28 0 21 -21 48 -98 125 -53 53 -101 97 -105 97 -4 0 -7 -11 -7 -26z"/>
<path d="M13540 4672 c0 -19 184 -222 201 -222 5 0 9 10 9 23 0 15 -31 55 -93
120 -93 97 -117 113 -117 79z"/>
<path d="M16070 4667 c0 -15 31 -54 98 -120 53 -53 101 -97 105 -97 4 0 7 10
7 23 0 15 -31 54 -98 120 -53 53 -101 97 -105 97 -4 0 -7 -10 -7 -23z"/>
<path d="M11195 4670 c-8 -13 18 -46 122 -153 78 -79 88 -86 102 -72 14 14 5
26 -94 125 -60 61 -113 110 -117 110 -4 0 -10 -5 -13 -10z"/>
<path d="M6519 4614 c-11 -13 3 -30 97 -125 102 -102 131 -122 141 -92 4 11
-202 233 -217 233 -4 0 -13 -7 -21 -16z"/>
<path d="M14467 4624 c-4 -4 -7 -13 -7 -21 0 -17 199 -223 216 -223 8 0 14 10
14 23 0 15 -33 55 -99 122 -102 102 -112 110 -124 99z"/>
<path d="M8080 4603 c0 -20 198 -233 216 -233 36 0 14 37 -84 139 -105 109
-132 128 -132 94z"/>
<path d="M9610 4602 c0 -19 199 -232 218 -232 32 0 3 45 -90 143 -101 106
-128 124 -128 89z"/>
<path d="M11132 4602 c-9 -6 21 -41 103 -121 105 -102 135 -121 135 -88 0 14
-201 217 -215 217 -5 0 -16 -4 -23 -8z"/>
<path d="M6463 4563 c-25 -10 -11 -30 90 -131 97 -97 127 -116 143 -91 6 10
-202 230 -216 228 -3 0 -11 -3 -17 -6z"/>
<path d="M13540 4547 c0 -16 31 -57 96 -125 53 -56 100 -102 105 -102 5 0 9
12 9 28 0 20 -22 50 -94 125 -51 53 -98 97 -105 97 -6 0 -11 -11 -11 -23z"/>
<path d="M16070 4542 c0 -21 21 -48 98 -125 53 -53 101 -97 105 -97 4 0 7 12
7 28 0 21 -21 48 -98 125 -53 53 -101 97 -105 97 -4 0 -7 -12 -7 -28z"/>
<path d="M8000 4547 c0 -7 46 -62 103 -122 87 -92 105 -107 125 -101 12 4 22
10 22 14 0 4 -46 56 -102 115 -72 75 -110 107 -125 107 -13 0 -23 -6 -23 -13z"/>
<path d="M9530 4547 c0 -7 46 -62 103 -122 87 -92 105 -107 125 -101 12 4 22
10 22 14 0 4 -46 55 -103 115 -71 75 -109 107 -124 107 -13 0 -23 -6 -23 -13z"/>
<path d="M11067 4553 c-4 -3 -7 -11 -7 -16 0 -14 201 -217 214 -217 6 0 18 5
26 10 12 8 -7 31 -95 120 -104 105 -123 119 -138 103z"/>
<path d="M12300 4539 c0 -14 35 -58 97 -120 53 -55 100 -99 105 -99 4 0 8 10
8 23 0 15 -31 54 -98 120 -53 53 -101 97 -105 97 -4 0 -7 -10 -7 -21z"/>
<path d="M14447 4534 c-19 -20 2 -53 94 -149 81 -84 105 -103 115 -94 8 6 14
16 14 22 0 9 -196 218 -210 225 -3 1 -9 -1 -13 -4z"/>
<path d="M6370 4507 c0 -19 203 -217 223 -217 9 0 17 4 17 10 0 5 -46 57 -101
115 -93 96 -139 127 -139 92z"/>
<path d="M7920 4507 c0 -7 44 -59 98 -115 67 -71 104 -102 120 -102 12 0 22 6
22 13 0 6 -44 58 -98 115 -67 71 -104 102 -119 102 -13 0 -23 -6 -23 -13z"/>
<path d="M9450 4508 c0 -7 44 -59 98 -116 67 -71 104 -102 120 -102 12 0 22 6
22 13 0 6 -44 58 -98 115 -67 71 -104 102 -119 102 -13 0 -23 -6 -23 -12z"/>
<path d="M10981 4511 c-21 -13 183 -221 216 -221 14 0 23 4 21 9 -5 14 -208
221 -216 221 -4 0 -13 -4 -21 -9z"/>
<path d="M7330 4502 c0 -10 129 -141 158 -160 46 -30 30 -3 -49 81 -71 77
-109 104 -109 79z"/>
<path d="M8860 4502 c0 -10 128 -140 157 -159 49 -32 31 -3 -48 81 -71 76
-109 103 -109 78z"/>
<path d="M15573 4496 c-9 -11 8 -34 85 -115 53 -56 103 -101 110 -101 23 0 12
38 -27 87 -36 46 -139 143 -151 143 -3 -1 -10 -7 -17 -14z"/>
<path d="M6270 4490 c-12 -8 5 -29 86 -111 88 -88 104 -100 130 -97 28 3 27 6
-75 111 -58 59 -110 107 -115 107 -6 0 -18 -5 -26 -10z"/>
<path d="M7442 4491 c2 -6 47 -55 100 -110 75 -77 104 -101 124 -101 25 0 25
2 -24 58 -79 91 -159 162 -182 162 -12 0 -20 -4 -18 -9z"/>
<path d="M7566 4492 c-2 -4 39 -54 93 -110 76 -79 104 -102 124 -102 15 0 27
4 27 8 0 5 -44 55 -97 111 -66 68 -105 101 -120 101 -12 0 -24 -4 -27 -8z"/>
<path d="M7686 4492 c-3 -5 39 -54 92 -110 86 -90 101 -102 131 -102 l33 0
-72 79 c-39 44 -87 94 -106 110 -33 30 -67 40 -78 23z"/>
<path d="M7810 4493 c0 -5 44 -54 98 -111 79 -83 102 -102 125 -102 28 0 27 2
-39 76 -84 94 -142 144 -166 144 -10 0 -18 -3 -18 -7z"/>
<path d="M8972 4490 c2 -5 47 -54 100 -110 75 -76 104 -100 124 -100 l26 0
-40 48 c-70 83 -169 172 -192 172 -12 0 -20 -4 -18 -10z"/>
<path d="M9096 4492 c-2 -4 40 -54 93 -110 76 -79 104 -102 125 -102 14 0 26
4 26 8 0 5 -44 55 -97 111 -66 68 -105 101 -120 101 -12 0 -24 -4 -27 -8z"/>
<path d="M9216 4492 c-3 -5 39 -54 92 -110 86 -89 102 -102 131 -102 l33 0
-72 79 c-39 44 -87 94 -106 110 -34 30 -67 40 -78 23z"/>
<path d="M9340 4493 c0 -5 44 -54 98 -111 79 -83 102 -102 125 -102 28 0 27 2
-39 76 -84 94 -142 144 -166 144 -10 0 -18 -3 -18 -7z"/>
<path d="M10445 4429 c78 -79 123 -114 133 -105 10 11 -161 176 -183 176 -15
0 -3 -17 50 -71z"/>
<path d="M10870 4490 c-12 -8 4 -29 85 -110 80 -80 105 -100 128 -100 16 0 27
4 25 9 -6 18 -201 211 -212 211 -6 0 -18 -5 -26 -10z"/>
<path d="M5560 4484 c0 -8 135 -151 173 -183 15 -13 30 -21 33 -18 6 6 -185
207 -197 207 -5 0 -9 -3 -9 -6z"/>
<path d="M5652 4480 c2 -5 45 -52 97 -105 68 -69 101 -95 119 -95 31 0 27 5
-87 123 -60 61 -93 87 -109 87 -13 0 -22 -4 -20 -10z"/>
<path d="M5770 4482 c0 -4 44 -52 98 -105 85 -85 103 -98 128 -95 28 3 26 5
-70 106 -80 83 -104 102 -127 102 -16 0 -29 -3 -29 -8z"/>
<path d="M5890 4482 c0 -4 44 -52 98 -105 85 -85 103 -98 128 -95 28 3 26 5
-70 106 -80 83 -104 102 -127 102 -16 0 -29 -3 -29 -8z"/>
<path d="M6020 4482 c0 -4 44 -52 99 -106 78 -78 103 -97 122 -94 22 3 14 13
-75 106 -70 71 -107 102 -123 102 -13 0 -23 -3 -23 -8z"/>
<path d="M6140 4482 c0 -4 44 -52 98 -105 86 -86 103 -98 128 -95 28 3 27 5
-70 106 -80 82 -105 102 -128 102 -15 0 -28 -3 -28 -8z"/>
<path d="M10490 4482 c0 -4 44 -51 98 -105 75 -75 103 -97 125 -97 15 0 27 3
27 8 0 4 -44 51 -98 105 -75 75 -103 97 -125 97 -15 0 -27 -3 -27 -8z"/>
<path d="M10620 4482 c0 -4 44 -51 98 -105 65 -65 105 -97 120 -97 12 0 22 3
22 8 0 4 -44 51 -98 105 -65 65 -105 97 -120 97 -12 0 -22 -3 -22 -8z"/>
<path d="M10740 4482 c0 -4 44 -51 98 -105 75 -75 103 -97 125 -97 15 0 27 3
27 8 0 4 -44 51 -98 105 -75 75 -103 97 -125 97 -15 0 -27 -3 -27 -8z"/>
<path d="M11970 4482 c0 -4 44 -51 98 -105 67 -67 105 -97 121 -97 12 0 21 4
19 10 -1 5 -45 52 -97 105 -66 66 -101 95 -118 95 -12 0 -23 -3 -23 -8z"/>
<path d="M12090 4482 c0 -4 44 -51 98 -105 75 -75 103 -97 125 -97 15 0 27 3
27 8 0 4 -44 51 -98 105 -75 75 -103 97 -125 97 -15 0 -27 -3 -27 -8z"/>
<path d="M12221 4473 c7 -10 51 -57 98 -105 68 -70 91 -88 114 -88 16 0 27 4
25 10 -1 5 -45 52 -97 105 -77 78 -98 95 -123 95 -27 0 -29 -2 -17 -17z"/>
<path d="M13226 4468 c10 -13 54 -60 98 -105 63 -65 87 -83 108 -83 16 0 28 3
28 8 0 4 -42 51 -93 105 -81 85 -96 97 -126 97 l-34 0 19 -22z"/>
<path d="M13340 4480 c0 -5 41 -52 91 -105 74 -77 97 -95 120 -95 16 0 29 3
29 8 0 4 -42 51 -93 105 -73 77 -98 97 -119 97 -16 0 -28 -4 -28 -10z"/>
<path d="M13490 4453 c116 -127 166 -173 187 -173 13 0 23 3 23 8 0 4 -42 51
-93 105 -76 80 -98 97 -122 97 l-29 0 34 -37z"/>
<path d="M14110 4484 c0 -10 192 -204 202 -204 21 0 1 28 -83 115 -80 83 -119
112 -119 89z"/>
<path d="M14211 4473 c7 -10 51 -57 98 -105 67 -69 92 -88 113 -88 16 0 28 3
28 8 0 4 -44 51 -98 105 -78 77 -103 97 -126 97 -25 0 -27 -2 -15 -17z"/>
<path d="M14341 4473 c7 -10 51 -57 98 -105 58 -60 93 -88 108 -88 13 0 23 3
23 8 0 4 -44 51 -98 105 -68 68 -104 97 -121 97 -21 0 -22 -2 -10 -17z"/>
<path d="M15320 4481 c0 -5 42 -52 93 -105 73 -76 98 -96 120 -96 15 0 27 3
27 8 0 4 -42 51 -93 105 -73 76 -98 97 -120 97 -15 0 -27 -4 -27 -9z"/>
<path d="M15510 4410 c40 -44 86 -91 102 -105 28 -24 68 -34 68 -17 0 4 -42
51 -93 105 -75 79 -97 97 -121 97 -27 0 -26 -2 44 -80z"/>
<path d="M15860 4482 c0 -4 44 -51 98 -105 75 -75 103 -97 125 -97 15 0 27 3
27 8 0 4 -44 51 -98 105 -75 75 -103 97 -125 97 -15 0 -27 -3 -27 -8z"/>
<path d="M15990 4482 c0 -4 44 -52 99 -106 78 -77 103 -97 122 -94 22 3 14 13
-75 106 -70 72 -106 102 -123 102 -12 0 -23 -3 -23 -8z"/>
<path d="M15280 4443 c85 -93 145 -153 153 -153 12 0 -153 178 -172 185 -9 3
0 -11 19 -32z"/>
</g>
</svg>
